<svg width="120" height="21" viewBox="0 0 120 21" fill="none" xmlns="http://www.w3.org/2000/svg">
<path d="M19.8279 6.96271C19.8279 7.78763 19.725 8.52289 19.5239 9.16848C19.3227 9.81408 19.0455 10.3879 18.7012 10.8811C18.357 11.3743 17.9546 11.8002 17.5031 12.1499C17.0515 12.4996 16.5776 12.791 16.0858 13.0196C15.5941 13.2483 15.0933 13.4097 14.5926 13.5128C14.0874 13.6159 13.618 13.6652 13.1754 13.6652L20.6907 20.1749H15.1246L7.62267 13.6652H5.03409V10.0562H13.1709C13.6224 10.0203 14.0382 9.92616 14.4093 9.77372C14.7848 9.62129 15.1067 9.41506 15.3795 9.15503C15.6522 8.895 15.8623 8.58565 16.0098 8.21803C16.1574 7.8504 16.2334 7.43345 16.2334 6.96271V4.6852C16.2334 4.48345 16.2066 4.32654 16.1574 4.21894C16.1082 4.11134 16.0411 4.03512 15.9651 3.98132C15.8891 3.92753 15.8042 3.90063 15.7148 3.89166C15.6253 3.88269 15.5449 3.87821 15.4733 3.87821H3.59897V20.1749H0V2.08938C0 1.83831 0.0447066 1.60518 0.138593 1.38102C0.232479 1.15685 0.35766 0.964074 0.518608 0.798193C0.679556 0.632311 0.871798 0.502296 1.09087 0.408147C1.3144 0.313998 1.55136 0.269165 1.81066 0.269165H15.4733C16.2781 0.269165 16.9532 0.417114 17.5075 0.704044C18.0619 0.995457 18.509 1.36309 18.8577 1.80245C19.202 2.24181 19.4523 2.71704 19.6043 3.22365C19.7563 3.73474 19.8323 4.20997 19.8323 4.65382V6.95822L19.8279 6.96271ZM41.377 20.1794H28.3939C27.8976 20.1794 27.3522 20.0898 26.762 19.9149C26.1719 19.7401 25.6265 19.4487 25.1213 19.0452C24.6161 18.6417 24.2003 18.1216 23.8605 17.476C23.5252 16.8349 23.3553 16.0458 23.3553 15.1088V2.08938C23.3553 1.83831 23.4 1.60518 23.4939 1.38102C23.5878 1.15685 23.713 0.964074 23.8739 0.798193C24.0349 0.632311 24.2271 0.502296 24.4507 0.408147C24.6697 0.313998 24.9111 0.269165 25.1705 0.269165H41.3815V3.87821H26.9588V15.1088C26.9588 15.5796 27.0839 15.9427 27.3343 16.1938C27.5847 16.4449 27.9468 16.5704 28.4296 16.5704H41.3859V20.1794H41.377ZM39.7586 12.0423H28.3939V8.40632H39.7586V12.0423ZM65.4655 12.1274C65.4655 13.3379 65.2599 14.4543 64.8441 15.472C64.4283 16.4897 63.8516 17.3684 63.1139 18.1081C62.3762 18.8479 61.5 19.4262 60.4896 19.8342C59.4792 20.2467 58.3793 20.4529 57.1901 20.4529H52.317C51.1278 20.4529 50.0235 20.2467 49.0086 19.8342C47.9937 19.4218 47.1175 18.8479 46.3798 18.1081C45.6421 17.3684 45.0609 16.4897 44.6407 15.472C44.2204 14.4543 44.0103 13.3379 44.0103 12.1274V8.32562C44.0103 7.1241 44.2204 6.00777 44.6407 4.98558C45.0609 3.96339 45.6376 3.08467 46.3798 2.34941C47.1175 1.61415 47.9937 1.03581 49.0086 0.623345C50.0235 0.206399 51.1278 0.000168744 52.317 0.000168744H57.1901C58.3793 0.000168744 59.4792 0.206399 60.4896 0.623345C61.5 1.04029 62.3762 1.61415 63.1139 2.34941C63.8516 3.08467 64.4283 3.96339 64.8441 4.98558C65.2599 6.00777 65.4655 7.11962 65.4655 8.32562V12.1274ZM61.8666 8.32562C61.8666 7.61278 61.7548 6.96719 61.5268 6.38885C61.2988 5.8105 60.9813 5.31734 60.57 4.90488C60.1587 4.49242 59.6669 4.1741 59.0902 3.94546C58.5135 3.71681 57.8786 3.60473 57.1857 3.60473H52.3125C51.6106 3.60473 50.9713 3.71681 50.3946 3.94546C49.8178 4.1741 49.3216 4.49242 48.9058 4.90488C48.49 5.31734 48.1681 5.8105 47.9446 6.38885C47.7166 6.96719 47.6048 7.61278 47.6048 8.32562V12.1274C47.6048 12.8403 47.7166 13.4859 47.9446 14.0642C48.1726 14.6426 48.49 15.1357 48.9058 15.5482C49.3216 15.9607 49.8178 16.279 50.3946 16.5076C50.9713 16.7363 51.6106 16.8483 52.3125 16.8483H57.1588C57.8607 16.8483 58.5001 16.7363 59.0768 16.5076C59.6535 16.279 60.1498 15.9607 60.5656 15.5482C60.9813 15.1357 61.3032 14.6426 61.5268 14.0642C61.7548 13.4859 61.8666 12.8403 61.8666 12.1274V8.32562ZM88.8566 18.6372C88.8566 18.8972 88.8074 19.1348 88.7135 19.359C88.6197 19.5831 88.4855 19.7714 88.3246 19.9373C88.1636 20.0987 87.9714 20.2243 87.7523 20.3184C87.5288 20.4126 87.2963 20.4574 87.0459 20.4574C86.8224 20.4574 86.5989 20.417 86.3753 20.3319C86.1473 20.2467 85.9506 20.1167 85.7718 19.9284L72.6232 6.1602V20.1794H69.0243V1.8159C69.0243 1.44379 69.1271 1.11202 69.3372 0.811642C69.5429 0.511262 69.8111 0.287098 70.133 0.139149C70.4728 0.000167643 70.826 -0.0356984 71.1836 0.0360341C71.5413 0.103283 71.8543 0.273649 72.1091 0.542646L85.2576 14.2974V0.278132H88.8566V18.6417V18.6372ZM112.842 11.8495C112.842 13.06 112.632 14.1763 112.212 15.194C111.792 16.2117 111.215 17.0904 110.473 17.8257C109.735 18.561 108.859 19.1393 107.844 19.5518C106.829 19.9687 105.725 20.1749 104.536 20.1749H94.8206C94.5613 20.1749 94.3244 20.1301 94.1008 20.036C93.8818 19.9418 93.6895 19.8163 93.5286 19.6549C93.3676 19.4935 93.238 19.3007 93.1485 19.081C93.0547 18.8569 93.01 18.6192 93.01 18.3592V2.08938C93.01 1.83831 93.0547 1.60518 93.1485 1.38102C93.2424 1.15685 93.3676 0.964074 93.5286 0.798193C93.6895 0.632311 93.8818 0.502296 94.1008 0.408147C94.3244 0.313998 94.5613 0.269165 94.8206 0.269165H104.536C105.725 0.269165 106.829 0.475396 107.844 0.892341C108.859 1.30929 109.735 1.88315 110.473 2.61841C111.21 3.35366 111.792 4.23239 112.212 5.25458C112.632 6.27676 112.842 7.38862 112.842 8.59462V11.845V11.8495ZM109.243 8.5991C109.243 7.89523 109.132 7.25412 108.904 6.67129C108.676 6.08847 108.358 5.59082 107.942 5.17836C107.527 4.7659 107.03 4.44759 106.454 4.21894C105.877 3.99029 105.238 3.87821 104.536 3.87821H96.6045V16.5659H104.536C105.238 16.5659 105.877 16.4538 106.454 16.2252C107.03 15.9965 107.527 15.6782 107.942 15.2657C108.358 14.8533 108.68 14.3601 108.904 13.7818C109.132 13.2034 109.243 12.5578 109.243 11.845V8.59462V8.5991ZM120 20.1794H116.401V0.273649H120V20.1794Z" fill="#E06A3C"/>
</svg>
