<svg width="120" height="20" viewBox="0 0 120 20" fill="none" xmlns="http://www.w3.org/2000/svg">
<path d="M19.8279 6.54733C19.8279 7.32304 19.725 8.01443 19.5239 8.62151C19.3227 9.22859 19.0455 9.76822 18.7012 10.232C18.357 10.6957 17.9546 11.0962 17.5031 11.425C17.0515 11.7539 16.5776 12.0279 16.0858 12.2429C15.5941 12.4579 15.0933 12.6097 14.5926 12.7066C14.0874 12.8036 13.618 12.85 13.1754 12.85L20.6907 18.9714H15.1246L7.62267 12.85H5.03409V9.45624H13.1709C13.6224 9.42252 14.0382 9.33399 14.4093 9.19065C14.7848 9.04731 15.1067 8.85338 15.3795 8.60887C15.6522 8.36435 15.8623 8.07345 16.0098 7.72776C16.1574 7.38206 16.2334 6.98999 16.2334 6.54733V4.40569C16.2334 4.21598 16.2066 4.06843 16.1574 3.96725C16.1082 3.86607 16.0411 3.7944 15.9651 3.74381C15.8891 3.69322 15.8042 3.66792 15.7148 3.65949C15.6253 3.65106 15.5449 3.64684 15.4733 3.64684H3.59897V18.9714H0V1.96473C0 1.72865 0.0447066 1.50942 0.138593 1.29863C0.232479 1.08784 0.35766 0.90656 0.518608 0.750574C0.679556 0.594589 0.871798 0.472331 1.09087 0.383798C1.3144 0.295266 1.55136 0.253107 1.81066 0.253107H15.4733C16.2781 0.253107 16.9532 0.39223 17.5075 0.662042C18.0619 0.936071 18.509 1.28177 18.8577 1.69492C19.202 2.10807 19.4523 2.55495 19.6043 3.03133C19.7563 3.51194 19.8323 3.95881 19.8323 4.37618V6.54311L19.8279 6.54733ZM41.377 18.9756H28.3939C27.8976 18.9756 27.3522 18.8913 26.762 18.7268C26.1719 18.5624 25.6265 18.2884 25.1213 17.909C24.6161 17.5295 24.2003 17.0405 23.8605 16.4334C23.5252 15.8306 23.3553 15.0886 23.3553 14.2075V1.96473C23.3553 1.72865 23.4 1.50942 23.4939 1.29863C23.5878 1.08784 23.713 0.90656 23.8739 0.750574C24.0349 0.594589 24.2271 0.472331 24.4507 0.383798C24.6697 0.295266 24.9111 0.253107 25.1705 0.253107H41.3815V3.64684H26.9588V14.2075C26.9588 14.6501 27.0839 14.9916 27.3343 15.2277C27.5847 15.4638 27.9468 15.5818 28.4296 15.5818H41.3859V18.9756H41.377ZM39.7586 11.3239H28.3939V7.90482H39.7586V11.3239ZM65.4655 11.404C65.4655 12.5422 65.2599 13.592 64.8441 14.549C64.4283 15.5059 63.8516 16.3322 63.1139 17.0279C62.3762 17.7235 61.5 18.2673 60.4896 18.651C59.4792 19.0388 58.3793 19.2327 57.1901 19.2327H52.317C51.1278 19.2327 50.0235 19.0388 49.0086 18.651C47.9937 18.2631 47.1175 17.7235 46.3798 17.0279C45.6421 16.3322 45.0609 15.5059 44.6407 14.549C44.2204 13.592 44.0103 12.5422 44.0103 11.404V7.82894C44.0103 6.6991 44.2204 5.64936 44.6407 4.68815C45.0609 3.72694 45.6376 2.90064 46.3798 2.20925C47.1175 1.51785 47.9937 0.974013 49.0086 0.586157C50.0235 0.194086 51.1278 0.000158677 52.317 0.000158677H57.1901C58.3793 0.000158677 59.4792 0.194086 60.4896 0.586157C61.5 0.978229 62.3762 1.51785 63.1139 2.20925C63.8516 2.90064 64.4283 3.72694 64.8441 4.68815C65.2599 5.64936 65.4655 6.69488 65.4655 7.82894V11.404ZM61.8665 7.82894C61.8665 7.15862 61.7548 6.55154 61.5268 6.0077C61.2988 5.46386 60.9813 5.00012 60.57 4.61227C60.1587 4.22441 59.6669 3.92509 59.0902 3.71008C58.5135 3.49507 57.8786 3.38968 57.1857 3.38968H52.3125C51.6106 3.38968 50.9713 3.49507 50.3946 3.71008C49.8178 3.92509 49.3216 4.22441 48.9058 4.61227C48.49 5.00012 48.1681 5.46386 47.9446 6.0077C47.7166 6.55154 47.6048 7.15862 47.6048 7.82894V11.404C47.6048 12.0743 47.7166 12.6813 47.9446 13.2252C48.1726 13.769 48.49 14.2328 48.9058 14.6206C49.3216 15.0085 49.8178 15.3078 50.3946 15.5228C50.9713 15.7378 51.6106 15.8432 52.3125 15.8432H57.1588C57.8607 15.8432 58.5001 15.7378 59.0768 15.5228C59.6535 15.3078 60.1498 15.0085 60.5656 14.6206C60.9813 14.2328 61.3032 13.769 61.5268 13.2252C61.7548 12.6813 61.8665 12.0743 61.8665 11.404V7.82894ZM88.8566 17.5253C88.8566 17.7698 88.8074 17.9933 88.7135 18.2041C88.6197 18.4149 88.4855 18.5919 88.3246 18.7479C88.1636 18.8997 87.9714 19.0177 87.7523 19.1063C87.5288 19.1948 87.2963 19.2369 87.0459 19.2369C86.8224 19.2369 86.5989 19.199 86.3753 19.1189C86.1473 19.0388 85.9506 18.9165 85.7718 18.7395L72.6232 5.7927V18.9756H69.0243V1.70757C69.0243 1.35765 69.1271 1.04568 69.3372 0.763221C69.5429 0.480761 69.8111 0.26997 70.133 0.130848C70.4728 0.000157642 70.826 -0.0335687 71.1836 0.0338844C71.5413 0.0971217 71.8543 0.257323 72.1091 0.510273L85.2576 13.4444V0.261539H88.8566V17.5295V17.5253ZM112.842 11.1426C112.842 12.2808 112.632 13.3306 112.212 14.2876C111.792 15.2446 111.215 16.0709 110.473 16.7623C109.735 17.4537 108.859 17.9975 107.844 18.3854C106.829 18.7774 105.725 18.9714 104.536 18.9714H94.8206C94.5613 18.9714 94.3244 18.9292 94.1008 18.8407C93.8818 18.7521 93.6895 18.6341 93.5286 18.4823C93.3676 18.3305 93.238 18.1493 93.1485 17.9427C93.0547 17.7319 93.01 17.5085 93.01 17.2639V1.96473C93.01 1.72865 93.0547 1.50942 93.1485 1.29863C93.2424 1.08784 93.3676 0.90656 93.5286 0.750574C93.6895 0.594589 93.8818 0.472331 94.1008 0.383798C94.3244 0.295266 94.5613 0.253107 94.8206 0.253107H104.536C105.725 0.253107 106.829 0.447035 107.844 0.839106C108.859 1.23118 109.735 1.7708 110.473 2.4622C111.21 3.15359 111.792 3.97989 112.212 4.9411C112.632 5.90231 112.842 6.94783 112.842 8.08189V11.1384V11.1426ZM109.243 8.0861C109.243 7.42422 109.132 6.82136 108.904 6.2733C108.676 5.72524 108.358 5.25729 107.942 4.86943C107.527 4.48158 107.03 4.18225 106.454 3.96725C105.877 3.75224 105.238 3.64684 104.536 3.64684H96.6045V15.5776H104.536C105.238 15.5776 105.877 15.4722 106.454 15.2572C107.03 15.0422 107.527 14.7429 107.942 14.355C108.358 13.9672 108.68 13.5034 108.904 12.9596C109.132 12.4158 109.243 11.8087 109.243 11.1384V8.08189V8.0861ZM120 18.9756H116.401V0.257324H120V18.9756Z" fill="#FBF9F5"/>
</svg>
