<svg width="120" height="19" viewBox="0 0 120 19" fill="none" xmlns="http://www.w3.org/2000/svg">
<path d="M19.8279 6.29959C19.8279 7.04595 19.725 7.71119 19.5239 8.29529C19.3227 8.8794 19.0455 9.39861 18.7012 9.8448C18.357 10.291 17.9546 10.6763 17.5031 10.9927C17.0515 11.3091 16.5776 11.5728 16.0858 11.7797C15.5941 11.9865 15.0933 12.1326 14.5926 12.2258C14.0874 12.3191 13.618 12.3638 13.1754 12.3638L20.6907 18.2535H15.1246L7.62267 12.3638H5.03409V9.09844H13.1709C13.6224 9.06599 14.0382 8.98081 14.4093 8.84289C14.7848 8.70498 15.1067 8.51839 15.3795 8.28312C15.6522 8.04786 15.8623 7.76797 16.0098 7.43536C16.1574 7.10274 16.2334 6.7255 16.2334 6.29959V4.23899C16.2334 4.05646 16.2066 3.91449 16.1574 3.81713C16.1082 3.71978 16.0411 3.65083 15.9651 3.60215C15.8891 3.55347 15.8042 3.52914 15.7148 3.52102C15.6253 3.51291 15.5449 3.50885 15.4733 3.50885H3.59897V18.2535H0V1.89039C0 1.66324 0.0447066 1.45231 0.138593 1.24949C0.232479 1.04668 0.35766 0.872257 0.518608 0.722174C0.679556 0.572091 0.871798 0.454459 1.09087 0.369276C1.3144 0.284094 1.55136 0.24353 1.81066 0.24353H15.4733C16.2781 0.24353 16.9532 0.377389 17.5075 0.636992C18.0619 0.900652 18.509 1.23327 18.8577 1.63079C19.202 2.0283 19.4523 2.45827 19.6043 2.91663C19.7563 3.37905 19.8323 3.80902 19.8323 4.2106V6.29554L19.8279 6.29959ZM41.377 18.2576H28.3939C27.8976 18.2576 27.3522 18.1764 26.762 18.0183C26.1719 17.8601 25.6265 17.5964 25.1213 17.2313C24.6161 16.8663 24.2003 16.3957 23.8605 15.8116C23.5252 15.2316 23.3553 14.5177 23.3553 13.6699V1.89039C23.3553 1.66324 23.4 1.45231 23.4939 1.24949C23.5878 1.04668 23.713 0.872257 23.8739 0.722174C24.0349 0.572091 24.2271 0.454459 24.4507 0.369276C24.6697 0.284094 24.9111 0.24353 25.1705 0.24353H41.3815V3.50885H26.9588V13.6699C26.9588 14.0958 27.0839 14.4244 27.3343 14.6515C27.5847 14.8787 27.9468 14.9923 28.4296 14.9923H41.3859V18.2576H41.377ZM39.7586 10.8954H28.3939V7.60572H39.7586V10.8954ZM65.4655 10.9725C65.4655 12.0677 65.2599 13.0777 64.8441 13.9985C64.4283 14.9192 63.8516 15.7143 63.1139 16.3836C62.3762 17.0529 61.5 17.5761 60.4896 17.9452C59.4792 18.3184 58.3793 18.505 57.1901 18.505H52.317C51.1278 18.505 50.0235 18.3184 49.0086 17.9452C47.9937 17.5721 47.1175 17.0529 46.3798 16.3836C45.6421 15.7143 45.0609 14.9192 44.6407 13.9985C44.2204 13.0777 44.0103 12.0677 44.0103 10.9725V7.53271C44.0103 6.44562 44.2204 5.4356 44.6407 4.51076C45.0609 3.58592 45.6376 2.79089 46.3798 2.12565C47.1175 1.46042 47.9937 0.937158 49.0086 0.563979C50.0235 0.186742 51.1278 0.000152673 52.317 0.000152673H57.1901C58.3793 0.000152673 59.4792 0.186742 60.4896 0.563979C61.5 0.941215 62.3762 1.46042 63.1139 2.12565C63.8516 2.79089 64.4283 3.58592 64.8441 4.51076C65.2599 5.4356 65.4655 6.44156 65.4655 7.53271V10.9725ZM61.8665 7.53271C61.8665 6.88775 61.7548 6.30365 61.5268 5.78038C61.2988 5.25712 60.9813 4.81093 60.57 4.43775C60.1587 4.06457 59.6669 3.77657 59.0902 3.5697C58.5135 3.36283 57.8786 3.26142 57.1857 3.26142H52.3125C51.6106 3.26142 50.9713 3.36283 50.3946 3.5697C49.8178 3.77657 49.3216 4.06457 48.9058 4.43775C48.49 4.81093 48.1681 5.25712 47.9446 5.78038C47.7166 6.30365 47.6048 6.88775 47.6048 7.53271V10.9725C47.6048 11.6174 47.7166 12.2015 47.9446 12.7248C48.1726 13.248 48.49 13.6942 48.9058 14.0674C49.3216 14.4406 49.8178 14.7286 50.3946 14.9355C50.9713 15.1423 51.6106 15.2437 52.3125 15.2437H57.1588C57.8607 15.2437 58.5001 15.1423 59.0768 14.9355C59.6535 14.7286 60.1498 14.4406 60.5656 14.0674C60.9813 13.6942 61.3032 13.248 61.5268 12.7248C61.7548 12.2015 61.8665 11.6174 61.8665 10.9725V7.53271ZM88.8566 16.8622C88.8566 17.0975 88.8074 17.3125 88.7135 17.5153C88.6197 17.7181 88.4855 17.8884 88.3246 18.0385C88.1636 18.1846 87.9714 18.2981 87.7523 18.3833C87.5288 18.4685 87.2963 18.5091 87.0459 18.5091C86.8224 18.5091 86.5989 18.4726 86.3753 18.3955C86.1473 18.3184 85.9506 18.2008 85.7718 18.0304L72.6232 5.57351V18.2576H69.0243V1.64296C69.0243 1.30628 69.1271 1.00611 69.3372 0.734343C69.5429 0.46257 69.8111 0.259755 70.133 0.125897C70.4728 0.000151677 70.826 -0.0322986 71.1836 0.0326023C71.5413 0.0934468 71.8543 0.247587 72.1091 0.490965L85.2576 12.9357V0.251643H88.8566V16.8663V16.8622ZM112.842 10.721C112.842 11.8162 112.632 12.8262 112.212 13.747C111.792 14.6677 111.215 15.4628 110.473 16.128C109.735 16.7932 108.859 17.3165 107.844 17.6897C106.829 18.0669 105.725 18.2535 104.536 18.2535H94.8206C94.5613 18.2535 94.3244 18.213 94.1008 18.1278C93.8818 18.0426 93.6895 17.929 93.5286 17.783C93.3676 17.637 93.238 17.4625 93.1485 17.2638C93.0547 17.061 93.01 16.846 93.01 16.6107V1.89039C93.01 1.66324 93.0547 1.45231 93.1485 1.24949C93.2424 1.04668 93.3676 0.872257 93.5286 0.722174C93.6895 0.572091 93.8818 0.454459 94.1008 0.369276C94.3244 0.284094 94.5613 0.24353 94.8206 0.24353H104.536C105.725 0.24353 106.829 0.43012 107.844 0.807356C108.859 1.18459 109.735 1.7038 110.473 2.36903C111.21 3.03427 111.792 3.8293 112.212 4.75414C112.632 5.67898 112.842 6.68494 112.842 7.77609V10.7169V10.721ZM109.243 7.78014C109.243 7.1433 109.132 6.56325 108.904 6.03593C108.676 5.50861 108.358 5.05836 107.942 4.68518C107.527 4.312 107.03 4.02401 106.454 3.81713C105.877 3.61026 105.238 3.50885 104.536 3.50885H96.6045V14.9882H104.536C105.238 14.9882 105.877 14.8868 106.454 14.6799C107.03 14.473 107.527 14.185 107.942 13.8119C108.358 13.4387 108.68 12.9925 108.904 12.4692C109.132 11.946 109.243 11.3619 109.243 10.7169V7.77609V7.78014ZM120 18.2576H116.401V0.247587H120V18.2576Z" fill="white" fill-opacity="0.6"/>
</svg>
